<svg id="Layer_1" xmlns="http://www.w3.org/2000/svg" viewBox="0 0 3279.7 1777.3"><style>.st0{fill:#fff}</style><path class="st0" d="M1326.4 1735c24.3 0 30.7-21.7 30.7-42 0-18.7-9.9-36.1-30.7-36.1-20.5 0-30.5 17.9-30.5 36.1 0 20.1 6.4 42 30.5 42m0-102.6c36.1 0 63.7 24.3 63.7 64.4 0 34.9-23.3 62.8-63.7 62.8-40.1 0-63.5-27.8-63.5-62.8 0-40.1 27.6-64.4 63.5-64.4zM1426.4 1658.3H1403v-23.1h23.4v-17c0-24.3 13.7-41.3 38.7-41.3 8 0 17 1.2 23.1 2.6l-2.6 26.2c-2.8-1.6-6.9-4.3-13.7-4.3-10.6 0-13.9 9.2-13.9 18.6v15.1h27.6v23.1H1458v98.4h-31.6v-98.3M1575.1 1592h52.9l39.1 124.8h.5l39.2-124.8h52.8v164.7H1728v-135.9h-.5l-44.3 135.9h-31.7l-44.3-135.9-.5.5v135.4h-31.6V1592M1837.5 1736.4c9.7 0 17.2-4.3 22.2-10.9 5.2-6.9 6.6-15.6 6.6-25h-13.7c-14.2 0-35.2 2.3-35.2 21 0 10.5 8.8 14.9 20.1 14.9m-37.1-94.8c12.3-5.6 28.8-9.2 42.2-9.2 37.1 0 52.4 15.3 52.4 51.2v15.6c0 12.3.2 21.5.5 30.4.2 9.2.7 17.7 1.4 27.2h-27.8c-1.2-6.4-1.2-14.4-1.4-18.2h-.4c-7.3 13.5-23.1 21-37.5 21-21.5 0-42.5-13-42.5-36.1 0-18.2 8.7-28.8 20.8-34.7 12-5.9 27.6-7.1 40.8-7.1h17.5c0-19.6-8.7-26.2-27.4-26.2-13.5 0-26.9 5.2-37.5 13.2l-1.1-27.1zM1936.6 1658.3h-23.4v-23.1h23.4v-24.3l31.6-10.1v34.5h28.1v23.1h-28.1v56.6c0 10.4 2.8 20 14.9 20 5.7 0 11.1-1.2 14.4-3.3l.9 25c-6.6 1.9-13.9 2.8-23.4 2.8-24.8 0-38.4-15.3-38.4-39.4v-61.8M2018 1579.7h31.6v72h.5c8-11.8 21.7-19.3 38.2-19.3 28.8 0 41.3 20.3 41.3 47.6v76.7H2098v-64.9c0-14.9-.2-34.9-20.5-34.9-22.9 0-27.8 24.8-27.8 40.3v59.5H2018v-177M2306.1 1629.3c0-11.5-8.7-17-18.2-17-9.4 0-18.9 5.4-18.9 17.4 0 9.2 9.2 17 15.6 23.4 8.3-4.2 21.5-14.1 21.5-23.8m-28.8 55c-10.9 5.7-20.1 13.4-20.1 26.4 0 14.4 12.5 24.3 27.9 24.3 11.1 0 21.5-2.8 28.8-9.9l-36.6-40.8zm56 18.9c8-9.2 9.9-23.1 10.4-35.9h28.8c-.9 21-7.8 40.6-21 56.4l29.5 33.1h-40.6l-11.1-14.7c-11.6 11.8-28.6 17.5-44.8 17.5-32.6 0-58.8-17-58.8-47.9 0-19.8 8.5-34.2 34.7-45.3-12.8-12-22.9-20.8-22.9-39.6 0-25 26.9-37.5 50-37.5s47.4 10.6 47.4 37.3c0 22.6-13.9 33.3-31.9 43.6l30.3 33zM2555.1 1622.2c-10.4-4.5-22-7.1-33.5-7.1-11.3 0-26 4.9-26 22.9 0 28.6 72.2 16.5 72.2 71.7 0 36.1-28.5 49.8-61.8 49.8-17.9 0-26-2.3-42.2-6.4l3.1-29.7c11.3 6.1 24.3 10.1 37.3 10.1 12.5 0 29.3-6.4 29.3-21.2 0-31.4-72.2-18.4-72.2-72.9 0-36.8 28.5-50.3 57.6-50.3 14.2 0 27.4 1.9 39.4 5.9l-3.2 27.2M2673.7 1661.4c-5.6-2.6-11.8-4.5-21.5-4.5-19.6 0-32.1 15.6-32.1 38.5 0 22.4 10.6 39.6 32.8 39.6 9 0 18.9-3.3 24.3-5.6l1.4 26.2c-9.2 2.8-18.6 4-31.6 4-39.9 0-59.9-27.1-59.9-64.2 0-35.2 20.8-63 58.7-63 12.7 0 22 1.4 30.7 4l-2.8 25M2732 1635.2v121.5h-31.6v-121.5h31.6zm0-52.4v30.2h-31.6v-30.2h31.6zM2841.5 1684.1c-1-15.4-8-28.6-25.7-28.6s-26.6 12.3-28.1 28.6h53.8m21.3 65.8c-11.6 6.4-24.8 9.7-41.8 9.7-40.1 0-63.5-23.1-63.5-63 0-35.2 18.6-64.2 56.4-64.2 45.1 0 57.8 30.9 57.8 73.4h-84c1.4 19.6 15.1 30.7 34.7 30.7 15.4 0 28.6-5.7 40.4-12.3v25.7zM2896.5 1635.2h30v16.5h.5c9.9-13.9 23.4-19.3 39.9-19.3 28.8 0 41.3 20.3 41.3 47.6v76.7h-31.6v-64.9c0-14.9-.3-34.9-20.5-34.9-22.9 0-27.9 24.8-27.9 40.3v59.5h-31.6v-121.5M3119.5 1661.4c-5.7-2.6-11.8-4.5-21.5-4.5-19.6 0-32.1 15.6-32.1 38.5 0 22.4 10.6 39.6 32.8 39.6 9 0 18.9-3.3 24.3-5.6l1.4 26.2c-9.2 2.8-18.6 4-31.6 4-39.9 0-59.9-27.1-59.9-64.2 0-35.2 20.8-63 58.8-63 12.7 0 21.9 1.4 30.7 4l-2.9 25M3221.7 1684.1c-1-15.4-8-28.6-25.7-28.6s-26.7 12.3-28.1 28.6h53.8m21.2 65.8c-11.6 6.4-24.8 9.7-41.8 9.7-40.1 0-63.5-23.1-63.5-63 0-35.2 18.6-64.2 56.4-64.2 45.1 0 57.8 30.9 57.8 73.4h-84c1.4 19.6 15.1 30.7 34.7 30.7 15.3 0 28.6-5.7 40.3-12.3v25.7zM1535.6 135c-7.3 0-13.2 5.9-13.2 13.2v242.3c-2.6-3.3-198.5-250.2-198.5-250.2-1.9-1.9-5.8-5.3-10.7-5.3H1278c-7.5 0-13.2 5.7-13.2 13.2v342c0 7.5 5.7 13.2 13.2 13.2h35.2c7.6 0 13.2-5.7 13.2-13.2V247.4c2.6 3.3 199.1 251.2 199.1 251.2 2 2 5.5 4.8 10.2 4.8h35.2c7.6 0 13.2-5.7 13.2-13.2v-342c0-7.5-5.7-13.2-13.2-13.2h-35.3M1899.4 135c-7.3 0-13.2 5.9-13.2 13.2v202.3c0 60.9-31.2 94.4-87.7 94.4-57.7 0-88.2-32.6-88.2-94.4V148.3c0-7.5-5.7-13.2-13.2-13.2h-38.3c-7.5 0-13.2 5.7-13.2 13.2v207.5c0 94 58.6 152.4 152.9 152.4 94.1 0 152.5-58.4 152.5-152.4V148.3c0-7.5-5.7-13.2-13.2-13.2h-38.4M1986.5 232.6c0 70.6 60.9 92.2 105.3 108l27.6 8.9c38.9 11.8 62.7 20.4 62.7 47.1 0 31.8-23.8 49.4-66.9 49.4-43.2 0-63.8-16.2-80.3-29.3-.5-.4-.9-.7-.9-.7-3.5-2-7.3-2.7-10.8-1.8-2.8.7-5.1 2.5-6.8 4.8l-.1-.1-24.3 30.5c-2.1 2.8-3 6.4-2.5 10 .5 3.5 2.3 6.7 5 8.7 25.9 19.8 60.6 39.9 120.8 39.9 80.7 0 132.7-43.8 132.7-111.5 0-73.6-68.7-96.4-105.6-108.6l-7.5-2.5-18.9-6.1c-39.6-12.5-63.6-21.9-63.6-46.8 0-9.8 0-39.5 68.5-39.5 35.5 0 60.2 17.2 68.3 22.9 2.7 2 6.4 2.8 10 2.1 3.7-.7 6.9-2.9 8.8-6.1 0 0-.3 0-.5.1 1.1-1 4.7-6.4 21.5-31.9 1.5-2.4 2.2-5 2.2-7.5 0-1.1-.1-2.1-.4-3.1-.8-3.3-3-6.2-6-8-31.3-20.3-66.3-30.6-104-30.6-84.1 0-134.3 38-134.3 101.7M1516 620.1c-7.3 0-13.3 5.9-13.3 13.2v140.5h-173.2V633.3c0-7.5-5.7-13.2-13.3-13.2h-38.3c-7.5 0-13.2 5.7-13.2 13.2v342c0 7.5 5.7 13.3 13.2 13.3h38.3c7.6 0 13.3-5.7 13.3-13.3v-142h173.2v142c0 7.3 6 13.3 13.3 13.3h38.3c7.5 0 13.2-5.7 13.2-13.3v-342c0-7.5-5.7-13.2-13.2-13.2H1516M1647.4 620.1c-7.5 0-13.2 5.7-13.2 13.2v342c0 7.5 5.7 13.3 13.2 13.3h38.3c7.6 0 13.3-5.7 13.3-13.3v-342c0-7.5-5.7-13.2-13.3-13.2h-38.3M1744.8 804.1c0 104.3 85.1 189.2 189.7 189.2 31.8 0 61.8-7.5 89.2-22.1v4.2c0 7.5 5.7 13.3 13.2 13.3h38.3c7.3 0 13.3-5.9 13.3-13.3V807.2c0-7.3-5.9-13.2-13.3-13.2h-138.7c-7.5 0-13.2 5.7-13.2 13.2v35.7c0 7.5 5.7 13.2 13.2 13.2h87.1v41.1c-12.5 12.1-41 33.3-89.2 33.3-68.3 0-123.9-56.7-123.9-126.5 0-67.7 56.7-124.9 123.9-124.9 39.8 0 62.4 15.6 78.9 27l.8.6c2.7 2 6.4 2.8 10 2.1 3.7-.7 6.8-2.9 8.7-6.1 0 0-.2 0-.5.1 1-.9 4.5-6.2 20.5-30.9 1.6-1.8 2.5-4.6 2.5-7.4 0-.5 0-1.1-.1-1.6-.4-3.5-2.4-6.8-5.3-9-30.3-20.2-61.9-38.4-115.6-38.4-104.4 0-189.5 84.6-189.5 188.6M2401.3 620.1c-7.3 0-13.3 5.9-13.3 13.2v140.5h-173.2V633.3c0-7.5-5.7-13.2-13.2-13.2h-38.3c-7.6 0-13.2 5.7-13.2 13.2v342c0 7.5 5.6 13.3 13.2 13.3h38.3c7.6 0 13.2-5.7 13.2-13.3v-142H2388v142c0 7.3 6 13.3 13.3 13.3h38.3c7.6 0 13.3-5.7 13.3-13.3v-342c0-7.5-5.7-13.2-13.3-13.2h-38.3M1238.8 1202.8c0 70.5 60.8 92.2 105.2 108l27.6 8.9c38.9 11.8 62.7 20.5 62.7 47.1 0 31.8-23.8 49.4-66.9 49.4-43.2 0-63.8-16.2-80.3-29.3l-1-.6c-3.4-2.1-7.3-2.7-10.8-1.8-2.8.7-5.1 2.5-6.8 4.8h-.1l-24.3 30.5c-2.1 2.8-3 6.3-2.5 10 .5 3.5 2.3 6.7 5 8.7 25.9 19.7 60.6 39.9 120.7 39.9 80.7 0 132.7-43.8 132.7-111.5 0-73.7-68.7-96.4-105.6-108.6l-7.5-2.5s-.1 0-18.9-6.1c-39.6-12.5-63.6-21.8-63.6-46.8 0-9.8 0-39.6 68.5-39.6 35.5 0 60.2 17.2 68.3 22.9 2.6 2 6.4 2.8 10 2.1 3.7-.7 6.9-2.9 8.8-6.1 0 0-.2.1-.5.2 1.1-1 4.7-6.5 21.5-31.9 1.5-2.4 2.2-5 2.2-7.6 0-4.4-2.2-8.6-6.3-11-31.3-20.3-66.3-30.6-104-30.6-83.9-.2-134.1 37.8-134.1 101.5M1520.3 1289.2c0 104.6 85.1 189.7 189.7 189.7 60.8 0 101.3-27.3 115.8-39.1 5.5-4.1 6.9-11.7 3.3-17.7l-20.9-30.4c-1.6-2.6-4.5-4.8-7.7-5.5-3.5-.9-7.1-.3-10.4 1.6l-6 3.8c-14.4 9.4-36.2 23.5-74.1 23.5-68.3 0-123.9-56.5-123.9-126 0-67.7 56.7-124.9 123.9-124.9 39.7 0 62.4 15.6 78.9 27l.9.5c2.6 2 6.3 2.7 10 2.1 3.7-.8 6.9-3 8.8-6.1 0 0-.3.1-.5.1 1.1-1 4.5-6.3 20.5-31 1.6-1.8 2.4-4.6 2.4-7.4 0-.5 0-1.1-.1-1.6-.4-3.5-2.4-6.8-5.3-9-30.3-20.3-62-38.4-115.6-38.4-102.9.2-189.7 86.5-189.7 188.8M2120.3 1106c-6.9 0-12.5 5.6-12.5 12.5v141.2H1933v-141.2c0-7.1-5.4-12.5-12.5-12.5h-38.3c-7.1 0-12.5 5.3-12.5 12.5v342c0 7.2 5.4 12.5 12.5 12.5h38.3c7.1 0 12.5-5.3 12.5-12.5v-142.7h174.8v142.7c0 6.9 5.6 12.5 12.5 12.5h38.3c7.2 0 12.5-5.3 12.5-12.5v-342c0-7.1-5.4-12.5-12.5-12.5h-38.3M2282 1289.7c0-70 56.7-127 126.5-127 69.5 0 126 57 126 127 0 69.7-56.5 126.5-126 126.5-69.7 0-126.5-56.8-126.5-126.5m-64.2 0c0 104 85.6 188.6 190.7 188.6 104.9 0 190.3-84.6 190.3-188.6 0-104.6-85.3-189.7-190.3-189.7-105.2 0-190.7 85.1-190.7 189.7zM2688.3 1289.7c0-70 56.7-127 126.4-127 69.4 0 125.9 57 125.9 127 0 69.7-56.5 126.5-125.9 126.5-69.7 0-126.4-56.8-126.4-126.5m-64.3 0c0 104 85.6 188.6 190.7 188.6 104.9 0 190.2-84.6 190.2-188.6 0-104.6-85.3-189.7-190.2-189.7-105.2 0-190.7 85.1-190.7 189.7zM3064.1 1105.2c-7.5 0-13.3 5.7-13.3 13.2v342c0 7.6 5.7 13.3 13.3 13.3h195.1c7.6 0 13.2-5.7 13.2-13.3v-33.1c0-7.6-5.7-13.3-13.2-13.3h-143.5v-295.7c0-7.5-5.7-13.2-13.2-13.2h-38.4M925.6 765.4H255.8c-14.9.1-26.9 12.2-26.9 27.1v85.8c0 14.9 12 27 26.9 27.1h77.5c14.8.1 26.8 12.1 26.9 26.9v215.4c.2 38.5 31.5 69.6 70 69.6s69.8-31.1 70-69.6V932c.3-14.7 12.2-26.5 26.9-26.6h154c14.8.1 26.7 12 26.9 26.7v215.5c.2 38.5 31.5 69.6 70 69.6s69.8-31.1 70-69.6V932.1c.2-14.7 12.2-26.6 26.9-26.7h50.5c38.5-.2 69.6-31.5 69.6-70 .2-38.6-31-69.8-69.4-70M1091.2 457.9c-.1 0-.2-.1-.2-.1s-76.4-44.1-172.6-99.7c96.3-55.6 172.9-99.8 172.9-99.8 12-6.9 16.1-22.2 9.3-34.3l-45-77.9c-7-11.9-22.3-16-34.3-9.1-.1 0-76.7 44.3-172.9 99.8V37.2c0-13.8-11.2-25.1-25-25.2h-89.9c-13.9.1-25.1 11.3-25.1 25.2v199.6C612.1 181.2 535.6 137 535.5 137c-12-6.9-27.3-2.9-34.3 9.1l-45 77.9c-6.9 12-2.8 27.4 9.2 34.3 0 0 76.6 44.2 172.9 99.8-96.3 55.6-172.8 99.8-172.8 99.8-12 6.9-16.1 22.2-9.3 34.2l45 77.9c7 11.9 22.3 16.1 34.4 9.1 0 0 76.6-44.2 172.8-99.8v144.9c0 38.7 31.4 70 70 70 38.7 0 70-31.4 70-70V479.3c96.3 55.6 172.8 99.8 172.8 99.8 12 6.9 27.3 2.8 34.3-9.1l45-77.9c6.8-11.9 2.7-27.2-9.3-34.2"/><path class="st0" d="M848.2 1338.9c-.1-38.6-31.5-69.9-70.1-69.9-38.7 0-70.1 31.4-70.1 70.1v7.6c-1 153.9-126 278.3-280.1 278.3-154.7 0-280.4-125.4-280.4-280.2V199.3c0-38.7-31.4-70.1-70.1-70.1-38.7 0-70.1 31.4-70.1 70.1l.2 1148c1.4 231 189 417.8 420.3 417.8 230.3 0 417.3-185.2 420.3-414.8l.1-11.4"/></svg>